# xmcd CD database file
#
# Track frame offsets:
#	150
#	6200
#	15436
#	25941
#	33077
#	49563
#	54202
#	72947
#	88826
#	90294
#	110128
#	121869
#	130148
#	149654
#
# Disc length: 2653 seconds
#
# Revision: 1
# Processed by: cddbd v1.5.1PL2 Copyright (c) Steve Scherf et al.
# Submitted via: jetAudio 5
#
DISCID=ad0a5b0e
DTITLE=Ebu Gogo - Chase Scenes 1-14
DYEAR=1900
DGENRE=
TTITLE0=Cukoo for Bird Flu
TTITLE1=King Two Ton Command
TTITLE2=Never Ending Hole
TTITLE3=Marathon Morning
TTITLE4=Spaghetti Chest Burn
TTITLE5=Bloodsucking Pirate Car
TTITLE6=Dkembe Bumbwembwe
TTITLE7=Mostly Evil, Totally Dead
TTITLE8=Fast Man/Hero Person
TTITLE9=Blooooherahahah!!!
TTITLE10=I Love Candy
TTITLE11=Wordy Wordpenis
TTITLE12=The Rancher of Neverland
TTITLE13=Cave of Les Miserably
EXTD=
EXTT0=
EXTT1=
EXTT2=
EXTT3=
EXTT4=
EXTT5=
EXTT6=
EXTT7=
EXTT8=
EXTT9=
EXTT10=
EXTT11=
EXTT12=
EXTT13=
PLAYORDER=
